<svg xmlns="http://www.w3.org/2000/svg" version="1.1" xmlns:xlink="http://www.w3.org/1999/xlink" xmlns:svgjs="http://svgjs.dev/svgjs" width="600" height="100" preserveAspectRatio="none" viewBox="0 0 600 100"><g mask="url(&quot;#SvgjsMask1132&quot;)" fill="none"><rect width="600" height="100" x="0" y="0" fill="rgba(46, 10, 55, 1)"></rect><path d="M610 100L0 100 L0 55.31Q17.61 42.92, 30 60.54Q45.37 45.91, 60 61.27Q79.59 30.87, 110 50.46Q141.02 31.48, 160 62.49Q172.59 45.09, 190 57.68Q211.93 29.61, 240 51.54Q260.8 42.34, 270 63.13Q279.51 42.64, 300 52.16Q330.93 33.09, 350 64.01Q366.07 50.09, 380 66.16Q397.4 33.56, 430 50.97Q458.71 29.69, 480 58.4Q504.75 33.15, 530 57.89Q554.77 32.66, 580 57.43Q591.78 39.21, 610 50.99z" fill="rgba(20, 42, 82, 1)"></path><path d="M630 100L0 100 L0 74.21Q22.92 47.13, 50 70.05Q63.61 53.66, 80 67.28Q97.38 54.66, 110 72.05Q127.33 59.38, 140 76.72Q161.91 48.63, 190 70.53Q203.28 53.81, 220 67.08Q238.06 55.14, 250 73.2Q264.81 58, 280 72.81Q299.85 42.66, 330 62.5Q347.25 49.75, 360 66.99Q380.1 57.09, 390 77.19Q415.01 52.21, 440 77.22Q448.16 55.38, 470 63.53Q484.37 47.89, 500 62.26Q522.11 54.37, 530 76.48Q556.05 52.53, 580 78.58Q598.17 46.75, 630 64.93z" fill="#25467d"></path><path d="M620 100L0 100 L0 82.83Q27.39 60.22, 50 87.6Q72.64 60.23, 100 82.87Q114.19 67.06, 130 81.24Q152.38 53.61, 180 75.99Q212.68 58.66, 230 91.34Q250.41 61.75, 280 82.16Q309.91 62.07, 330 91.99Q344.59 76.58, 360 91.17Q377.92 59.09, 410 77Q428.74 65.73, 440 84.47Q464.68 59.15, 490 83.83Q506.94 70.78, 520 87.72Q540.8 58.52, 570 79.32Q599.49 58.81, 620 88.3z" fill="#356cb1"></path><path d="M620 100L0 100 L0 97.3Q15.9 83.2, 30 99.1Q45.36 84.46, 60 99.82Q78.96 68.78, 110 87.73Q138.98 66.71, 160 95.69Q179.22 84.91, 190 104.14Q202.1 86.24, 220 98.34Q239.85 68.19, 270 88.04Q299 67.03, 320 96.03Q335.95 81.98, 350 97.93Q375.39 73.33, 400 98.72Q417.75 86.47, 430 104.21Q446.86 71.06, 480 87.92Q511.18 69.1, 530 100.28Q544.47 84.75, 560 99.22Q569.43 78.65, 590 88.08Q611 79.09, 620 100.09z" fill="white"></path></g><defs><mask id="SvgjsMask1132"><rect width="600" height="100" fill="#ffffff"></rect></mask></defs></svg>